<svg xmlns="http://www.w3.org/2000/svg" viewBox="0 0 64 64" fill="none">
  <rect width="64" height="64" rx="18" fill="#FFF8EF"/>
  <g stroke="#B85A2B" stroke-width="2.3" stroke-linecap="round" stroke-linejoin="round">
    <path d="M17 37c0-9.4 6.9-16.6 15-16.6S47 27.6 47 37c0 8.5-6.3 15-15 15s-15-6.5-15-15Z"/>
    <path d="M23.5 28.3c2-2.7 4.8-4.1 8.2-4.1 3.5 0 6.4 1.4 8.4 4.2"/>
    <path d="m24.3 35 3.2-3.7 3 3.6"/>
    <path d="m33.1 31.4 3.1-3.5 3.5 4"/>
    <path d="M26.6 41.8c1.2 1.4 3 2.2 5.1 2.2 2.2 0 4.1-.9 5.4-2.4"/>
    <path d="M15.2 32.4c0-10.5 7.4-18.8 16.6-18.8 8.8 0 15.9 7.5 16.5 17.4" opacity=".45"/>
  </g>
  <g fill="#B85A2B">
    <circle cx="26.8" cy="38.1" r="1"/>
    <circle cx="36.5" cy="37.8" r="1"/>
  </g>
</svg>
