<svg width="1440" height="2160" viewBox="0 0 1440 2160" fill="none" xmlns="http://www.w3.org/2000/svg">
  <defs>
    <linearGradient id="bg" x1="89" y1="125" x2="1286" y2="2040" gradientUnits="userSpaceOnUse">
      <stop stop-color="#D9BF8A"/>
      <stop offset="0.42" stop-color="#C5A66F"/>
      <stop offset="1" stop-color="#AE8A56"/>
    </linearGradient>
    <filter id="grain" x="-20%" y="-20%" width="140%" height="140%">
      <feTurbulence type="fractalNoise" baseFrequency="0.94" numOctaves="2" seed="9" result="noise"/>
      <feColorMatrix in="noise" type="saturate" values="0"/>
      <feComponentTransfer>
        <feFuncA type="table" tableValues="0 0.17"/>
      </feComponentTransfer>
    </filter>
    <filter id="emboss" x="-20%" y="-20%" width="140%" height="140%">
      <feGaussianBlur in="SourceAlpha" stdDeviation="5" result="blur"/>
      <feOffset dx="-7" dy="-7" result="offset1"/>
      <feOffset dx="7" dy="7" result="offset2"/>
      <feComposite in="offset1" in2="offset2" operator="arithmetic" k2="-1" k3="1" result="diff"/>
      <feColorMatrix in="diff" type="matrix" values="
        1 0 0 0 0
        0 1 0 0 0
        0 0 1 0 0
        0 0 0 0.72 0" result="embossLight"/>
      <feBlend in="SourceGraphic" in2="embossLight" mode="multiply"/>
    </filter>
    <filter id="softShadow" x="-20%" y="-20%" width="140%" height="140%">
      <feDropShadow dx="0" dy="18" stdDeviation="30" flood-color="#6E5227" flood-opacity="0.24"/>
    </filter>
  </defs>

  <rect width="1440" height="2160" fill="url(#bg)"/>
  <rect width="1440" height="2160" fill="#F7E1AD" opacity="0.12" filter="url(#grain)"/>

  <g opacity="0.3">
    <path d="M-60 1590C168 1512 357 1497 560 1518C774 1540 978 1634 1236 1596C1323 1583 1394 1552 1498 1489V1710C1371 1786 1265 1808 1176 1810C965 1814 811 1728 584 1704C370 1682 151 1716 -60 1800V1590Z" fill="#8B6A39"/>
    <path d="M-84 1829C152 1767 347 1758 566 1770C828 1785 1008 1878 1218 1852C1304 1842 1384 1814 1494 1731V1945C1344 2042 1228 2067 1138 2068C937 2072 749 1977 530 1954C309 1931 118 1952 -84 2004V1829Z" fill="#7B5C2D"/>
  </g>

  <g opacity="0.28" filter="url(#softShadow)">
    <ellipse cx="185" cy="1780" rx="332" ry="76" transform="rotate(-9 185 1780)" fill="#7E5D2B"/>
    <ellipse cx="986" cy="1925" rx="430" ry="98" transform="rotate(-7 986 1925)" fill="#6E5125"/>
  </g>

  <g filter="url(#emboss)">
    <text x="188" y="1468" transform="rotate(-14 188 1468)" fill="#9E7A49" font-size="186" font-family="Arial, Helvetica, sans-serif" font-weight="800" letter-spacing="-7">
      @QUEROBROA
    </text>
  </g>
</svg>
